<svg xmlns="http://www.w3.org/2000/svg" xmlns:xlink="http://www.w3.org/1999/xlink" width="1080" height="1080" viewBox="0 0 1080 1080">
  <defs>
    <linearGradient id="linear-gradient" y1="0.5" x2="1" y2="0.5" gradientUnits="objectBoundingBox">
      <stop offset="0" stop-color="#74c284"/>
      <stop offset="1" stop-color="#78d9fb"/>
    </linearGradient>
    <filter id="Path_1" x="180" y="180" width="720" height="720" filterUnits="userSpaceOnUse">
      <feOffset dy="3" input="SourceAlpha"/>
      <feGaussianBlur stdDeviation="3" result="blur"/>
      <feFlood flood-opacity="0.282" result="color"/>
      <feComposite operator="out" in="SourceGraphic" in2="blur"/>
      <feComposite operator="in" in="color"/>
      <feComposite operator="in" in2="SourceGraphic"/>
    </filter>
    <clipPath id="clip-Logo_-_transparent_background">
      <rect width="1080" height="1080"/>
    </clipPath>
  </defs>
  <g id="Logo_-_transparent_background" data-name="Logo - transparent background" clip-path="url(#clip-Logo_-_transparent_background)">
    <g data-type="innerShadowGroup">
      <path id="Path_1-2" data-name="Path 1" d="M612.165,639.677,422.643,451.812q-14.509-14.382-14.509-31.91t14.509-31.91q14.509-14.382,32.191-14.382t32.191,14.382L676.548,576.756q13.6,14.382,14.055,31.461t-14.055,31.461q-14.509,14.382-32.191,14.382T612.165,639.677ZM364.608,663.048q-79.8,0-146-26.517t-113.8-74.607q-47.607-48.09-73.9-114.157T4.608,302.6q0-79.1,26.3-144.719t73.9-113.708q47.607-48.09,113.8-74.607t146-26.517q79.8,0,145.542,26.517t113.8,74.607q48.06,48.09,74.358,113.708t26.3,144.719q0,79.1-26.3,145.169T623.953,561.924q-48.061,48.09-113.8,74.607T364.608,663.048Zm0-84.494q58.942,0,108.363-21.124A261.466,261.466,0,0,0,558.663,499q36.272-37.3,55.768-87.64t19.5-108.764q0-58.427-19.5-108.764t-55.768-87.64a255.8,255.8,0,0,0-85.693-57.978Q423.55,27.542,364.608,27.542T256.245,48.217q-49.421,20.674-85.239,57.978t-55.768,87.64Q95.288,244.172,95.288,302.6t19.95,108.764Q135.187,461.7,171.006,499t85.239,58.427Q305.666,578.554,364.608,578.554Z" transform="translate(175.392 236.952)" fill="url(#linear-gradient)"/>
      <g transform="matrix(1, 0, 0, 1, 0, 0)" filter="url(#Path_1)">
        <path id="Path_1-3" data-name="Path 1" d="M612.165,639.677,422.643,451.812q-14.509-14.382-14.509-31.91t14.509-31.91q14.509-14.382,32.191-14.382t32.191,14.382L676.548,576.756q13.6,14.382,14.055,31.461t-14.055,31.461q-14.509,14.382-32.191,14.382T612.165,639.677ZM364.608,663.048q-79.8,0-146-26.517t-113.8-74.607q-47.607-48.09-73.9-114.157T4.608,302.6q0-79.1,26.3-144.719t73.9-113.708q47.607-48.09,113.8-74.607t146-26.517q79.8,0,145.542,26.517t113.8,74.607q48.06,48.09,74.358,113.708t26.3,144.719q0,79.1-26.3,145.169T623.953,561.924q-48.061,48.09-113.8,74.607T364.608,663.048Zm0-84.494q58.942,0,108.363-21.124A261.466,261.466,0,0,0,558.663,499q36.272-37.3,55.768-87.64t19.5-108.764q0-58.427-19.5-108.764t-55.768-87.64a255.8,255.8,0,0,0-85.693-57.978Q423.55,27.542,364.608,27.542T256.245,48.217q-49.421,20.674-85.239,57.978t-55.768,87.64Q95.288,244.172,95.288,302.6t19.95,108.764Q135.187,461.7,171.006,499t85.239,58.427Q305.666,578.554,364.608,578.554Z" transform="translate(175.39 236.95)" fill="#fff"/>
      </g>
    </g>
  </g>
</svg>
